<?xml version="1.0" encoding="UTF-8" standalone="no"?><!DOCTYPE svg PUBLIC "-//W3C//DTD SVG 1.1//EN" "http://www.w3.org/Graphics/SVG/1.1/DTD/svg11.dtd"><svg width="100%" height="100%" viewBox="0 0 424 409" version="1.1" xmlns="http://www.w3.org/2000/svg" xmlns:xlink="http://www.w3.org/1999/xlink" xml:space="preserve" xmlns:serif="http://www.serif.com/" style="fill-rule:evenodd;clip-rule:evenodd;stroke-miterlimit:10;"><rect id="Artboard1" x="0" y="0" width="423.331" height="408.364" style="fill:none;"/><g><g><g><g><path d="M10.078,101.832l11.448,-11.44l11.432,11.44l-11.448,11.44l-11.432,-11.44Z" style="fill:#d3d3d3;"/></g><g><path d="M10.356,62.949l11.447,-11.438l11.431,11.438l-11.447,11.439l-11.431,-11.439Z" style="fill:#b4b4b4;"/></g><g><path d="M10.633,24.064l11.444,-11.439l11.433,11.439l-11.444,11.439l-11.433,-11.439Z" style="fill:#9a9a9a;"/></g><path d="M48.115,109.394l0,-99.227l0,99.227Z" style="fill:#515252;fill-rule:nonzero;"/><path d="M48.114,109.395l0,-97.928" style="fill:none;fill-rule:nonzero;stroke:#bfbfbf;stroke-width:1.33px;"/><path d="M53.022,15.444l-0.88,0.819l-4.027,-4.333l-4.029,4.333l-0.88,-0.819l4.909,-5.277l4.907,5.277Z" style="fill:#bfbfbf;fill-rule:nonzero;"/><g><g><path d="M6.235,284.722l0,-4.667l26.656,0l0,4.667l-26.656,0Z" style="fill:#515252;fill-rule:nonzero;"/><path d="M13.59,274.941l0,-4.032l2.688,0l0,-0.112c-0.473,-0.324 -0.909,-0.672 -1.307,-1.046c-0.398,-0.373 -0.734,-0.79 -1.008,-1.25c-0.274,-0.461 -0.491,-0.99 -0.653,-1.587c-0.162,-0.597 -0.243,-1.282 -0.243,-2.053c0,-1.17 0.262,-2.259 0.784,-3.267c0.523,-1.008 1.332,-1.723 2.427,-2.147c-0.996,-0.721 -1.78,-1.555 -2.352,-2.501c-0.573,-0.946 -0.859,-2.128 -0.859,-3.547c0,-2.04 0.498,-3.627 1.494,-4.76c0.995,-1.132 2.663,-1.698 5.002,-1.698l13.328,0l0,4.256l-11.274,0c-0.772,0 -1.475,0.025 -2.11,0.074c-0.634,0.05 -1.182,0.193 -1.642,0.43c-0.461,0.236 -0.816,0.591 -1.064,1.064c-0.249,0.473 -0.374,1.12 -0.374,1.941c0,1.444 0.448,2.489 1.344,3.136c0.896,0.647 2.166,0.971 3.808,0.971l11.312,0l0,4.256l-12.394,0c-1.344,0 -2.359,0.242 -3.043,0.728c-0.685,0.485 -1.027,1.375 -1.027,2.669c0,0.548 0.112,1.077 0.336,1.587c0.224,0.51 0.548,0.958 0.971,1.344c0.423,0.386 0.946,0.697 1.568,0.933c0.622,0.237 1.331,0.355 2.128,0.355l11.461,0l0,4.256l-19.301,0Z" style="fill:#515252;fill-rule:nonzero;"/><path d="M13.59,242.349l0,-4.032l2.613,0l0,-0.075c-1.12,-0.597 -1.922,-1.431 -2.408,-2.501c-0.485,-1.07 -0.728,-2.228 -0.728,-3.472c0,-1.518 0.268,-2.844 0.803,-3.976c0.535,-1.133 1.269,-2.072 2.203,-2.819c0.933,-0.747 2.022,-1.307 3.266,-1.68c1.245,-0.373 2.576,-0.56 3.995,-0.56c1.294,0 2.551,0.168 3.771,0.504c1.219,0.336 2.296,0.846 3.229,1.531c0.933,0.684 1.68,1.549 2.24,2.594c0.56,1.046 0.84,2.278 0.84,3.696c0,0.623 -0.056,1.245 -0.168,1.867c-0.112,0.622 -0.293,1.22 -0.541,1.792c-0.249,0.573 -0.567,1.101 -0.952,1.587c-0.386,0.485 -0.84,0.89 -1.363,1.213l0,0.075l9.632,0l0,4.256l-26.432,0Zm9.669,-14.859c-0.871,0 -1.717,0.112 -2.538,0.336c-0.822,0.224 -1.55,0.56 -2.184,1.008c-0.635,0.448 -1.145,1.008 -1.531,1.68c-0.386,0.672 -0.579,1.444 -0.579,2.315c0,1.792 0.622,3.142 1.867,4.05c1.244,0.909 2.899,1.363 4.965,1.363c0.971,0 1.873,-0.118 2.707,-0.355c0.834,-0.236 1.549,-0.591 2.147,-1.064c0.597,-0.472 1.07,-1.039 1.418,-1.698c0.349,-0.66 0.523,-1.425 0.523,-2.296c0,-0.971 -0.199,-1.792 -0.597,-2.464c-0.399,-0.672 -0.915,-1.226 -1.55,-1.662c-0.634,-0.435 -1.356,-0.746 -2.165,-0.933c-0.809,-0.187 -1.637,-0.28 -2.483,-0.28Z" style="fill:#515252;fill-rule:nonzero;"/><path d="M28.598,203.485c0.523,0 0.896,-0.069 1.12,-0.206c0.224,-0.136 0.336,-0.404 0.336,-0.802l0,-0.448c0,-0.174 -0.025,-0.374 -0.075,-0.598l2.95,0c0.049,0.15 0.105,0.343 0.168,0.579c0.062,0.237 0.118,0.479 0.168,0.728c0.049,0.249 0.087,0.498 0.112,0.747c0.024,0.249 0.037,0.46 0.037,0.634c0,0.872 -0.174,1.593 -0.523,2.166c-0.348,0.572 -0.958,0.946 -1.829,1.12c0.821,0.846 1.419,1.885 1.792,3.117c0.373,1.232 0.56,2.421 0.56,3.565c0,0.872 -0.118,1.705 -0.355,2.502c-0.236,0.796 -0.585,1.499 -1.045,2.109c-0.461,0.61 -1.045,1.095 -1.755,1.456c-0.709,0.361 -1.537,0.541 -2.482,0.541c-1.195,0 -2.166,-0.217 -2.912,-0.653c-0.747,-0.435 -1.332,-1.008 -1.755,-1.717c-0.423,-0.71 -0.728,-1.506 -0.915,-2.39c-0.186,-0.883 -0.33,-1.773 -0.429,-2.669c-0.149,-0.771 -0.255,-1.506 -0.317,-2.203c-0.063,-0.696 -0.168,-1.312 -0.318,-1.848c-0.149,-0.535 -0.379,-0.958 -0.69,-1.269c-0.312,-0.311 -0.778,-0.467 -1.4,-0.467c-0.548,0 -0.996,0.131 -1.344,0.392c-0.349,0.262 -0.616,0.585 -0.803,0.971c-0.187,0.386 -0.311,0.815 -0.373,1.288c-0.063,0.473 -0.094,0.921 -0.094,1.344c0,1.195 0.249,2.178 0.747,2.949c0.498,0.772 1.269,1.208 2.315,1.307l0,4.256c-1.245,-0.075 -2.278,-0.373 -3.099,-0.896c-0.821,-0.523 -1.481,-1.188 -1.979,-1.997c-0.498,-0.809 -0.846,-1.724 -1.045,-2.744c-0.199,-1.021 -0.299,-2.066 -0.299,-3.136c0,-0.946 0.1,-1.879 0.299,-2.8c0.199,-0.921 0.523,-1.749 0.971,-2.483c0.448,-0.734 1.026,-1.325 1.736,-1.773c0.709,-0.448 1.574,-0.672 2.594,-0.672l9.931,0Zm-5.376,4.256c0.423,0.647 0.678,1.443 0.765,2.389c0.087,0.946 0.218,1.892 0.392,2.837c0.075,0.448 0.181,0.884 0.318,1.307c0.136,0.423 0.323,0.797 0.56,1.12c0.236,0.324 0.547,0.579 0.933,0.765c0.386,0.187 0.852,0.28 1.4,0.28c0.473,0 0.871,-0.136 1.195,-0.41c0.323,-0.274 0.578,-0.604 0.765,-0.99c0.187,-0.385 0.317,-0.808 0.392,-1.269c0.075,-0.46 0.112,-0.877 0.112,-1.251c0,-0.472 -0.062,-0.983 -0.187,-1.53c-0.124,-0.548 -0.336,-1.064 -0.634,-1.55c-0.299,-0.485 -0.679,-0.889 -1.139,-1.213c-0.461,-0.323 -1.027,-0.485 -1.699,-0.485l-3.173,0Z" style="fill:#515252;fill-rule:nonzero;"/><path d="M20.049,185.863c-1.195,0.175 -2.097,0.654 -2.707,1.438c-0.61,0.784 -0.915,1.773 -0.915,2.968c0,0.547 0.094,1.132 0.28,1.754c0.187,0.623 0.535,1.195 1.046,1.718c0.51,0.522 1.219,0.958 2.128,1.306c0.908,0.349 2.096,0.523 3.565,0.523c0.796,0 1.593,-0.093 2.389,-0.28c0.797,-0.187 1.506,-0.485 2.128,-0.896c0.622,-0.411 1.126,-0.939 1.512,-1.587c0.386,-0.647 0.579,-1.431 0.579,-2.352c0,-1.244 -0.386,-2.271 -1.157,-3.08c-0.772,-0.808 -1.855,-1.312 -3.248,-1.512l0,-4.256c2.513,0.399 4.436,1.351 5.768,2.856c1.331,1.506 1.997,3.504 1.997,5.992c0,1.519 -0.255,2.856 -0.765,4.014c-0.511,1.157 -1.208,2.134 -2.091,2.93c-0.884,0.797 -1.935,1.4 -3.155,1.811c-1.219,0.411 -2.538,0.616 -3.957,0.616c-1.444,0 -2.8,-0.199 -4.069,-0.597c-1.27,-0.398 -2.371,-0.996 -3.304,-1.792c-0.934,-0.797 -1.668,-1.786 -2.203,-2.968c-0.535,-1.182 -0.803,-2.57 -0.803,-4.163c0,-1.12 0.143,-2.184 0.43,-3.192c0.286,-1.008 0.715,-1.904 1.288,-2.688c0.572,-0.784 1.294,-1.425 2.165,-1.923c0.871,-0.497 1.904,-0.796 3.099,-0.896l0,4.256Z" style="fill:#515252;fill-rule:nonzero;"/><path d="M13.59,180.077l0,-3.211l-5.787,0l0,-4.256l5.787,0l0,-3.845l3.173,0l0,3.845l10.304,0c0.448,0 0.834,-0.019 1.158,-0.056c0.323,-0.037 0.597,-0.124 0.821,-0.261c0.224,-0.137 0.392,-0.342 0.504,-0.616c0.112,-0.274 0.168,-0.647 0.168,-1.12c0,-0.299 -0.006,-0.598 -0.019,-0.896c-0.012,-0.299 -0.056,-0.598 -0.13,-0.896l3.285,0c0.05,0.473 0.099,0.933 0.149,1.381c0.05,0.448 0.075,0.909 0.075,1.381c0,1.12 -0.106,2.023 -0.317,2.707c-0.212,0.685 -0.523,1.22 -0.934,1.605c-0.41,0.386 -0.927,0.648 -1.549,0.784c-0.622,0.137 -1.332,0.218 -2.128,0.243l-11.387,0l0,3.211l-3.173,0Z" style="fill:#515252;fill-rule:nonzero;"/></g></g></g></g><g><path d="M315.216,395.65l99.226,0l-99.226,0Z" style="fill:#515252;fill-rule:nonzero;"/><path d="M315.216,395.65l97.928,0" style="fill:none;fill-rule:nonzero;stroke:#bfbfbf;stroke-width:1.33px;"/><path d="M409.167,400.556l-0.818,-0.877l4.333,-4.029l-4.333,-4.03l0.818,-0.877l5.278,4.907l-5.278,4.906Z" style="fill:#bfbfbf;fill-rule:nonzero;"/><g><path d="M321.976,357.337l7.732,7.732l-7.732,7.732l-7.732,-7.732l7.732,-7.732Z" style="fill:#b9b9ba;"/></g><g><path d="M357.294,353.829l11.238,11.244l-11.238,11.233l-11.239,-11.244l11.239,-11.233Z" style="fill:#b9b9ba;"/></g><g><path d="M400.326,349.621l15.446,15.448l-15.446,15.443l-15.445,-15.448l15.445,-15.443Z" style="fill:#b9b9ba;"/></g><g><g><path d="M94.954,350.742l4.667,0l0,22.624l13.552,0l0,4.032l-18.219,0l0,-26.656Z" style="fill:#515252;fill-rule:nonzero;"/><path d="M115.898,350.742l4.256,0l0,4.032l-4.256,0l0,-4.032Zm0,7.355l4.256,0l0,19.301l-4.256,0l0,-19.301Z" style="fill:#515252;fill-rule:nonzero;"/><path d="M124.895,350.742l4.256,0l0,15.157l7.691,-7.802l5.227,0l-7.392,7.093l8.101,12.208l-5.189,0l-5.899,-9.371l-2.539,2.464l0,6.907l-4.256,0l0,-26.656Z" style="fill:#515252;fill-rule:nonzero;"/><path d="M158.085,366.049c-0.05,-0.672 -0.193,-1.319 -0.43,-1.942c-0.236,-0.622 -0.56,-1.163 -0.97,-1.624c-0.411,-0.46 -0.909,-0.833 -1.494,-1.12c-0.585,-0.286 -1.238,-0.429 -1.96,-0.429c-0.746,0 -1.425,0.131 -2.034,0.392c-0.61,0.261 -1.133,0.622 -1.568,1.083c-0.436,0.46 -0.784,1.002 -1.046,1.624c-0.261,0.622 -0.404,1.294 -0.429,2.016l9.931,0Zm-9.931,2.8c0,0.746 0.106,1.468 0.317,2.165c0.212,0.697 0.529,1.307 0.952,1.829c0.423,0.523 0.958,0.94 1.606,1.251c0.647,0.311 1.418,0.467 2.314,0.467c1.245,0 2.246,-0.268 3.006,-0.803c0.759,-0.535 1.325,-1.338 1.698,-2.408l4.032,0c-0.224,1.045 -0.61,1.979 -1.157,2.8c-0.548,0.821 -1.207,1.512 -1.979,2.072c-0.771,0.56 -1.636,0.983 -2.594,1.269c-0.959,0.287 -1.96,0.43 -3.006,0.43c-1.518,0 -2.862,-0.249 -4.032,-0.747c-1.17,-0.498 -2.159,-1.195 -2.968,-2.091c-0.809,-0.896 -1.418,-1.966 -1.829,-3.21c-0.411,-1.245 -0.616,-2.614 -0.616,-4.107c0,-1.369 0.218,-2.669 0.653,-3.901c0.436,-1.232 1.058,-2.315 1.867,-3.248c0.809,-0.934 1.786,-1.674 2.931,-2.222c1.144,-0.547 2.439,-0.821 3.882,-0.821c1.518,0 2.881,0.317 4.088,0.952c1.207,0.635 2.209,1.475 3.006,2.52c0.796,1.045 1.375,2.246 1.736,3.603c0.36,1.356 0.454,2.756 0.28,4.2l-14.187,0Z" style="fill:#515252;fill-rule:nonzero;"/><rect x="165.701" y="350.742" width="4.256" height="26.656" style="fill:#515252;fill-rule:nonzero;"/><path d="M174.698,350.742l4.256,0l0,4.032l-4.256,0l0,-4.032Zm0,7.355l4.256,0l0,19.301l-4.256,0l0,-19.301Z" style="fill:#515252;fill-rule:nonzero;"/><path d="M183.583,350.742l4.256,0l0,9.893l0.075,0c0.523,-0.871 1.3,-1.599 2.333,-2.184c1.033,-0.584 2.184,-0.877 3.454,-0.877c2.115,0 3.783,0.548 5.002,1.643c1.22,1.095 1.83,2.738 1.83,4.928l0,13.253l-4.256,0l0,-12.133c-0.05,-1.518 -0.374,-2.62 -0.971,-3.304c-0.597,-0.685 -1.531,-1.027 -2.8,-1.027c-0.722,0 -1.369,0.131 -1.941,0.392c-0.573,0.261 -1.058,0.622 -1.456,1.083c-0.399,0.46 -0.71,1.002 -0.934,1.624c-0.224,0.622 -0.336,1.282 -0.336,1.978l0,11.387l-4.256,0l0,-26.656Z" style="fill:#515252;fill-rule:nonzero;"/><path d="M213.861,377.921c-1.544,0 -2.919,-0.255 -4.126,-0.766c-1.207,-0.51 -2.227,-1.213 -3.061,-2.109c-0.834,-0.896 -1.469,-1.966 -1.904,-3.211c-0.436,-1.244 -0.653,-2.613 -0.653,-4.106c0,-1.469 0.217,-2.825 0.653,-4.07c0.435,-1.244 1.07,-2.314 1.904,-3.21c0.834,-0.896 1.854,-1.599 3.061,-2.11c1.207,-0.51 2.582,-0.765 4.126,-0.765c1.543,0 2.918,0.255 4.125,0.765c1.207,0.511 2.227,1.214 3.061,2.11c0.834,0.896 1.469,1.966 1.904,3.21c0.436,1.245 0.654,2.601 0.654,4.07c0,1.493 -0.218,2.862 -0.654,4.106c-0.435,1.245 -1.07,2.315 -1.904,3.211c-0.834,0.896 -1.854,1.599 -3.061,2.109c-1.207,0.511 -2.582,0.766 -4.125,0.766Zm0,-3.36c0.945,0 1.767,-0.199 2.464,-0.598c0.696,-0.398 1.269,-0.92 1.717,-1.568c0.448,-0.647 0.778,-1.375 0.989,-2.184c0.212,-0.808 0.318,-1.636 0.318,-2.482c0,-0.822 -0.106,-1.643 -0.318,-2.464c-0.211,-0.822 -0.541,-1.55 -0.989,-2.184c-0.448,-0.635 -1.021,-1.151 -1.717,-1.55c-0.697,-0.398 -1.519,-0.597 -2.464,-0.597c-0.946,0 -1.768,0.199 -2.464,0.597c-0.697,0.399 -1.27,0.915 -1.718,1.55c-0.448,0.634 -0.778,1.362 -0.989,2.184c-0.212,0.821 -0.317,1.642 -0.317,2.464c0,0.846 0.105,1.674 0.317,2.482c0.211,0.809 0.541,1.537 0.989,2.184c0.448,0.648 1.021,1.17 1.718,1.568c0.696,0.399 1.518,0.598 2.464,0.598Z" style="fill:#515252;fill-rule:nonzero;"/><path d="M235.999,377.921c-1.543,0 -2.918,-0.255 -4.125,-0.766c-1.207,-0.51 -2.228,-1.213 -3.061,-2.109c-0.834,-0.896 -1.469,-1.966 -1.904,-3.211c-0.436,-1.244 -0.654,-2.613 -0.654,-4.106c0,-1.469 0.218,-2.825 0.654,-4.07c0.435,-1.244 1.07,-2.314 1.904,-3.21c0.833,-0.896 1.854,-1.599 3.061,-2.11c1.207,-0.51 2.582,-0.765 4.125,-0.765c1.543,0 2.918,0.255 4.126,0.765c1.207,0.511 2.227,1.214 3.061,2.11c0.834,0.896 1.468,1.966 1.904,3.21c0.435,1.245 0.653,2.601 0.653,4.07c0,1.493 -0.218,2.862 -0.653,4.106c-0.436,1.245 -1.07,2.315 -1.904,3.211c-0.834,0.896 -1.854,1.599 -3.061,2.109c-1.208,0.511 -2.583,0.766 -4.126,0.766Zm0,-3.36c0.946,0 1.767,-0.199 2.464,-0.598c0.697,-0.398 1.27,-0.92 1.718,-1.568c0.448,-0.647 0.777,-1.375 0.989,-2.184c0.211,-0.808 0.317,-1.636 0.317,-2.482c0,-0.822 -0.106,-1.643 -0.317,-2.464c-0.212,-0.822 -0.541,-1.55 -0.989,-2.184c-0.448,-0.635 -1.021,-1.151 -1.718,-1.55c-0.697,-0.398 -1.518,-0.597 -2.464,-0.597c-0.946,0 -1.767,0.199 -2.464,0.597c-0.697,0.399 -1.269,0.915 -1.717,1.55c-0.448,0.634 -0.778,1.362 -0.989,2.184c-0.212,0.821 -0.318,1.642 -0.318,2.464c0,0.846 0.106,1.674 0.318,2.482c0.211,0.809 0.541,1.537 0.989,2.184c0.448,0.648 1.02,1.17 1.717,1.568c0.697,0.399 1.518,0.598 2.464,0.598Z" style="fill:#515252;fill-rule:nonzero;"/><path d="M267.471,377.398l-4.032,0l0,-2.613l-0.074,0c-0.573,1.12 -1.407,1.922 -2.502,2.408c-1.095,0.485 -2.252,0.728 -3.472,0.728c-1.518,0 -2.843,-0.268 -3.976,-0.803c-1.132,-0.535 -2.072,-1.263 -2.818,-2.184c-0.747,-0.921 -1.307,-2.01 -1.68,-3.267c-0.374,-1.256 -0.56,-2.607 -0.56,-4.05c0,-1.742 0.236,-3.248 0.709,-4.518c0.473,-1.269 1.101,-2.314 1.885,-3.136c0.784,-0.821 1.68,-1.424 2.688,-1.81c1.008,-0.386 2.035,-0.579 3.08,-0.579c0.598,0 1.207,0.056 1.83,0.168c0.622,0.112 1.219,0.293 1.792,0.541c0.572,0.249 1.101,0.567 1.586,0.952c0.486,0.386 0.89,0.84 1.214,1.363l0.074,0l0,-9.856l4.256,0l0,26.656Zm-14.858,-9.445c0,0.821 0.105,1.63 0.317,2.426c0.211,0.797 0.535,1.506 0.971,2.128c0.435,0.623 0.989,1.12 1.661,1.494c0.672,0.373 1.468,0.56 2.389,0.56c0.946,0 1.761,-0.199 2.446,-0.598c0.684,-0.398 1.244,-0.92 1.68,-1.568c0.435,-0.647 0.759,-1.375 0.97,-2.184c0.212,-0.808 0.318,-1.636 0.318,-2.482c0,-2.141 -0.48,-3.808 -1.438,-5.003c-0.958,-1.195 -2.258,-1.792 -3.901,-1.792c-0.996,0 -1.836,0.205 -2.52,0.616c-0.685,0.411 -1.245,0.946 -1.68,1.605c-0.436,0.66 -0.747,1.407 -0.933,2.24c-0.187,0.834 -0.28,1.687 -0.28,2.558Z" style="fill:#515252;fill-rule:nonzero;"/></g></g></g></g></svg>